# xmcd CD database file
#
# Track frame offsets:
#	150
#	25552
#	49732
#	77051
#	93670
#	120625
#	146315
#	166002
#	189433
#	220247
#	243334
#	267825
#	294927
#
# Disc length: 4442 seconds
#
# Revision: 0
# Processed by: cddbd v1.4PL0 Copyright (c) Steve Scherf et al.
# Submitted via: CDex 1.51
#
DISCID=a711580d
DTITLE=Swannee Castle Jazz Band - Live im Bresserberg
DYEAR=2000
DGENRE=Jazz
TTITLE0=Bourbon Street Parade
TTITLE1=Say´s My Heart
TTITLE2=Sweet Sue
TTITLE3=Jazz Me Blues
TTITLE4=When You´re Smiling
TTITLE5=Mood Indigo
TTITLE6=Joshua Fit The Battle Of Jericho
TTITLE7=Back Home In Indiana
TTITLE8=Georgia On My Mind
TTITLE9=Hello Dolly
TTITLE10=Rosetta
TTITLE11=Basin Street Blues
TTITLE12=Mama Don´t Allow
EXTD=YEAR: 2000
EXTT0=
EXTT1=
EXTT2=
EXTT3=
EXTT4=
EXTT5=
EXTT6=
EXTT7=
EXTT8=
EXTT9=
EXTT10=
EXTT11=
EXTT12=
PLAYORDER=
